<mxfile host="app.diagrams.net" modified="2023-05-12T14:12:16.359Z" agent="Mozilla/5.0 (X11; Linux x86_64) AppleWebKit/537.36 (KHTML, like Gecko) Chrome/113.0.0.0 Safari/537.36" etag="XWR2fpyzxtSNCs904ZO8" version="21.2.9" type="github">
  <diagram name="Page-1" id="97916047-d0de-89f5-080d-49f4d83e522f">
    <mxGraphModel dx="952" dy="-623.5" grid="1" gridSize="10" guides="1" tooltips="1" connect="1" arrows="1" fold="1" page="1" pageScale="1.5" pageWidth="1169" pageHeight="827" background="none" math="0" shadow="0">
      <root>
        <mxCell id="0" />
        <mxCell id="1" parent="0" />
        <mxCell id="HIPQXESrhcLkBSpv66OM-65" value="" style="edgeStyle=orthogonalEdgeStyle;rounded=0;orthogonalLoop=1;jettySize=auto;html=1;" edge="1" parent="1" source="HIPQXESrhcLkBSpv66OM-55" target="HIPQXESrhcLkBSpv66OM-58">
          <mxGeometry relative="1" as="geometry" />
        </mxCell>
        <mxCell id="HIPQXESrhcLkBSpv66OM-70" style="edgeStyle=orthogonalEdgeStyle;rounded=0;orthogonalLoop=1;jettySize=auto;html=1;exitX=1;exitY=0.5;exitDx=0;exitDy=0;entryX=0.685;entryY=-0.025;entryDx=0;entryDy=0;entryPerimeter=0;" edge="1" parent="1" source="HIPQXESrhcLkBSpv66OM-55" target="HIPQXESrhcLkBSpv66OM-60">
          <mxGeometry relative="1" as="geometry" />
        </mxCell>
        <mxCell id="HIPQXESrhcLkBSpv66OM-73" style="edgeStyle=orthogonalEdgeStyle;rounded=0;orthogonalLoop=1;jettySize=auto;html=1;exitX=0;exitY=0.5;exitDx=0;exitDy=0;entryX=0.47;entryY=-0.017;entryDx=0;entryDy=0;entryPerimeter=0;" edge="1" parent="1" source="HIPQXESrhcLkBSpv66OM-55" target="HIPQXESrhcLkBSpv66OM-57">
          <mxGeometry relative="1" as="geometry" />
        </mxCell>
        <mxCell id="HIPQXESrhcLkBSpv66OM-55" value="navBar&lt;br&gt;" style="rounded=0;whiteSpace=wrap;html=1;" vertex="1" parent="1">
          <mxGeometry x="567" y="1500" width="170" height="60" as="geometry" />
        </mxCell>
        <mxCell id="HIPQXESrhcLkBSpv66OM-57" value="Logo" style="rounded=0;whiteSpace=wrap;html=1;" vertex="1" parent="1">
          <mxGeometry x="360" y="1620" width="140" height="60" as="geometry" />
        </mxCell>
        <mxCell id="HIPQXESrhcLkBSpv66OM-58" value="NavLinks" style="whiteSpace=wrap;html=1;rounded=0;" vertex="1" parent="1">
          <mxGeometry x="592" y="1620" width="120" height="60" as="geometry" />
        </mxCell>
        <mxCell id="HIPQXESrhcLkBSpv66OM-60" value="Log in" style="whiteSpace=wrap;html=1;rounded=0;" vertex="1" parent="1">
          <mxGeometry x="790" y="1620" width="120" height="60" as="geometry" />
        </mxCell>
        <mxCell id="HIPQXESrhcLkBSpv66OM-69" style="edgeStyle=orthogonalEdgeStyle;rounded=0;orthogonalLoop=1;jettySize=auto;html=1;exitX=0.5;exitY=1;exitDx=0;exitDy=0;" edge="1" parent="1" source="HIPQXESrhcLkBSpv66OM-68" target="HIPQXESrhcLkBSpv66OM-55">
          <mxGeometry relative="1" as="geometry" />
        </mxCell>
        <mxCell id="HIPQXESrhcLkBSpv66OM-91" style="edgeStyle=orthogonalEdgeStyle;rounded=0;orthogonalLoop=1;jettySize=auto;html=1;exitX=0.5;exitY=1;exitDx=0;exitDy=0;entryX=0.5;entryY=0;entryDx=0;entryDy=0;" edge="1" parent="1" source="HIPQXESrhcLkBSpv66OM-68" target="HIPQXESrhcLkBSpv66OM-75">
          <mxGeometry relative="1" as="geometry" />
        </mxCell>
        <mxCell id="HIPQXESrhcLkBSpv66OM-68" value="Home Landing&lt;br&gt;" style="rounded=0;whiteSpace=wrap;html=1;fillColor=#ffe6cc;strokeColor=#d79b00;" vertex="1" parent="1">
          <mxGeometry x="592" y="1320" width="118" height="60" as="geometry" />
        </mxCell>
        <mxCell id="HIPQXESrhcLkBSpv66OM-76" style="edgeStyle=orthogonalEdgeStyle;rounded=0;orthogonalLoop=1;jettySize=auto;html=1;exitX=0.5;exitY=1;exitDx=0;exitDy=0;" edge="1" parent="1" source="HIPQXESrhcLkBSpv66OM-75">
          <mxGeometry relative="1" as="geometry">
            <mxPoint x="1010.1176470588234" y="1620" as="targetPoint" />
          </mxGeometry>
        </mxCell>
        <mxCell id="HIPQXESrhcLkBSpv66OM-78" style="edgeStyle=orthogonalEdgeStyle;rounded=0;orthogonalLoop=1;jettySize=auto;html=1;" edge="1" parent="1" source="HIPQXESrhcLkBSpv66OM-75">
          <mxGeometry relative="1" as="geometry">
            <mxPoint x="1180" y="1620" as="targetPoint" />
          </mxGeometry>
        </mxCell>
        <mxCell id="HIPQXESrhcLkBSpv66OM-75" value="Landing page&amp;nbsp;&lt;br&gt;" style="whiteSpace=wrap;html=1;" vertex="1" parent="1">
          <mxGeometry x="950" y="1500" width="120" height="60" as="geometry" />
        </mxCell>
        <mxCell id="HIPQXESrhcLkBSpv66OM-77" value="main heading&lt;br&gt;" style="whiteSpace=wrap;html=1;" vertex="1" parent="1">
          <mxGeometry x="950" y="1620" width="120" height="60" as="geometry" />
        </mxCell>
        <mxCell id="HIPQXESrhcLkBSpv66OM-79" value="Search now&lt;br&gt;" style="whiteSpace=wrap;html=1;" vertex="1" parent="1">
          <mxGeometry x="1110" y="1620" width="120" height="60" as="geometry" />
        </mxCell>
        <mxCell id="HIPQXESrhcLkBSpv66OM-93" style="edgeStyle=orthogonalEdgeStyle;rounded=0;orthogonalLoop=1;jettySize=auto;html=1;" edge="1" parent="1" source="HIPQXESrhcLkBSpv66OM-92">
          <mxGeometry relative="1" as="geometry">
            <mxPoint x="650" y="1850" as="targetPoint" />
          </mxGeometry>
        </mxCell>
        <mxCell id="HIPQXESrhcLkBSpv66OM-92" value="section 2" style="whiteSpace=wrap;html=1;fillColor=#ffe6cc;strokeColor=#d79b00;" vertex="1" parent="1">
          <mxGeometry x="590" y="1740" width="120" height="60" as="geometry" />
        </mxCell>
        <mxCell id="HIPQXESrhcLkBSpv66OM-96" style="edgeStyle=orthogonalEdgeStyle;rounded=0;orthogonalLoop=1;jettySize=auto;html=1;entryX=0.5;entryY=0;entryDx=0;entryDy=0;" edge="1" parent="1" source="HIPQXESrhcLkBSpv66OM-94" target="HIPQXESrhcLkBSpv66OM-95">
          <mxGeometry relative="1" as="geometry" />
        </mxCell>
        <mxCell id="HIPQXESrhcLkBSpv66OM-94" value="section tittle&lt;br&gt;" style="whiteSpace=wrap;html=1;" vertex="1" parent="1">
          <mxGeometry x="592" y="1850" width="120" height="60" as="geometry" />
        </mxCell>
        <mxCell id="HIPQXESrhcLkBSpv66OM-95" value="section paragraph&lt;br&gt;" style="whiteSpace=wrap;html=1;" vertex="1" parent="1">
          <mxGeometry x="592" y="1940" width="120" height="60" as="geometry" />
        </mxCell>
      </root>
    </mxGraphModel>
  </diagram>
</mxfile>
